<svg width="80" height="113" viewBox="0 0 80 113" fill="none" xmlns="http://www.w3.org/2000/svg">
<g clip-path="url(#clip0_19_338)">
<path d="M39.9512 112.527L7.39435 103.489L0.139038 22.1143H79.8609L72.5981 103.477L39.9512 112.527Z" fill="#264DE4"/>
<path d="M66.3803 98.296L72.5866 28.7678H40V105.609L66.3803 98.296Z" fill="#2965F1"/>
<path d="M16.7716 58.9488L17.666 68.9292H40.0001V58.9488H16.7716ZM14.9741 38.7485L15.8813 48.7288H40.0001V38.7485H14.9741ZM40.0001 84.8688L39.9563 84.8804L28.8413 81.8792L28.1307 73.9195H18.1119L19.5101 89.5901L39.9541 95.2651L40.0001 95.2526V84.8688Z" fill="#EBEBEB"/>
<path d="M18.9012 0H30.9887V5.055H23.9562V10.11H30.9894V15.1647H18.9012V0ZM33.4066 0H45.4944V4.39563H38.4616V5.27469H45.4944V15.3847H33.4069V10.7687H40.4397V9.88969H33.4062L33.4066 0ZM47.9122 0H60V4.39563H52.9672V5.27469H60V15.3847H47.9122V10.7687H54.945V9.88969H47.9125L47.9122 0Z" fill="black"/>
<path d="M63.1647 58.9488L64.9663 38.7485H39.9656V48.7288H54.0288L53.1206 58.9488H39.9656V68.9292H52.2553L51.0966 81.8729L39.9653 84.8773V95.2604L60.4256 89.5901L60.5756 87.9038L62.9213 61.6288L63.1647 58.9488Z" fill="white"/>
</g>
<defs>
<clipPath id="clip0_19_338">
<rect width="80" height="112.812" fill="white"/>
</clipPath>
</defs>
</svg>
