<svg width="231" height="309" viewBox="0 0 231 309" fill="none" xmlns="http://www.w3.org/2000/svg">
<path d="M210.4 3.60235L212 3.20236C218.8 14.0024 225.6 38.8024 225.6 65.6024C225.6 83.6024 221.2 107.202 204.4 107.202C174.4 107.202 157.2 24.0023 101.6 24.0023C88 24.0023 45.6 30.0024 58.4 80.8024C79.2 164.002 183.2 108.002 183.2 141.202C183.2 162.402 142.4 148.402 122 148.002C80.8 147.202 59.2 193.602 82.8 230.802C126.4 299.202 202.8 305.202 221.2 264.802C242 219.202 153.2 208.402 147.2 229.602C145.6 236.002 146 239.602 153.6 248.402L151.6 249.602C130.4 228.002 109.2 189.202 120.4 175.202C147.6 140.802 251.6 195.602 226 265.602C200.8 334.002 0 323.602 0 217.602C0 133.202 123.2 141.202 146 141.202V138.802C125.2 138.002 4.4 133.202 4.4 59.6024C4.4 39.2024 13.6 0.0023498 58 0.0023498C114 -0.397645 145.2 50.4024 184.8 50.4024C203.2 50.4024 220.4 24.4024 210.4 3.60235Z" fill="black" fill-opacity="0.1"/>
</svg>
