<svg width="80" height="113" viewBox="0 0 80 113" fill="none" xmlns="http://www.w3.org/2000/svg">
<g clip-path="url(#clip0_19_361)">
<path d="M79.861 22.1143L72.5982 103.477L39.9513 112.527L7.39447 103.489L0.13916 22.1143H79.861Z" fill="#E44D26"/>
<path d="M40 105.609L66.3803 98.296L72.5866 28.7678H40V105.609Z" fill="#F16529"/>
<path d="M25.8813 48.7288H40.0001V38.7485H14.9741L15.2129 41.426L17.666 68.9292H40.0001V58.9488H26.7935L25.8813 48.7288ZM28.1307 73.9195H18.1119L19.5101 89.5901L39.9541 95.2651L40.0001 95.2526V84.8688L39.9563 84.8804L28.8413 81.8792L28.1307 73.9195Z" fill="#EBEBEB"/>
<path d="M7.55615 0H12.628V5.01094H17.2677V0H22.3399V15.1744H17.268V10.0931H12.6283V15.1744H7.55646L7.55615 0ZM29.0093 5.03219H24.5449V0H38.5493V5.03219H34.0821V15.1744H29.0102V5.03219H29.0093ZM40.7718 0H46.0602L49.3133 5.33187L52.5633 0H57.854V15.1744H52.8027V7.65312L49.3133 13.0484H49.2258L45.7343 7.65312V15.1744H40.7718V0ZM60.378 0H65.4515V10.1587H72.584V15.1744H60.3777L60.378 0Z" fill="black"/>
<path d="M39.9656 68.9292H52.2553L51.0966 81.8729L39.9653 84.8773V95.2604L60.4256 89.5901L60.5756 87.9038L62.9213 61.6288L63.1647 58.9488H39.9656V68.9292ZM39.9656 48.7045V48.7288H64.0728L64.2728 46.4857L64.7278 41.426L64.9663 38.7485H39.9656V48.7045Z" fill="white"/>
</g>
<defs>
<clipPath id="clip0_19_361">
<rect width="80" height="112.812" fill="white"/>
</clipPath>
</defs>
</svg>
