<svg width="80" height="80" viewBox="0 0 80 80" fill="none" xmlns="http://www.w3.org/2000/svg">
<g clip-path="url(#clip0_19_376)">
<mask id="mask0_19_376" style="mask-type:luminance" maskUnits="userSpaceOnUse" x="0" y="0" width="80" height="80">
<path d="M0 0H80V80H0V0Z" fill="white"/>
</mask>
<g mask="url(#mask0_19_376)">
<path d="M37.38 0.0204167C37.2067 0.0370833 36.66 0.09375 36.1667 0.130417C24.8067 1.15708 14.1667 7.28708 7.42 16.7104C3.69665 21.8841 1.27495 27.8789 0.36 34.1871C0.04 36.3871 0 37.0337 0 40.0137C0 42.9937 0.04 43.6437 0.36 45.8404C2.53333 60.8637 13.2267 73.4837 27.7233 78.1604C30.32 78.9971 33.0567 79.5671 36.1667 79.9138C37.38 80.0471 42.62 80.0471 43.8333 79.9138C49.2033 79.3171 53.7567 77.9871 58.2433 75.6971C58.9333 75.3471 59.0667 75.2504 58.9733 75.1738C56.7787 72.2794 54.6064 69.3682 52.4567 66.4404L46.06 57.7971L38.0467 45.9337C35.3804 41.9658 32.6892 38.0146 29.9733 34.0804C29.9433 34.0704 29.9133 39.3404 29.8967 45.7804C29.8733 57.0471 29.8633 57.5004 29.7233 57.7671C29.5858 58.0776 29.3424 58.3292 29.0367 58.4771C28.7867 58.6037 28.57 58.6271 27.3867 58.6271H26.0333L25.6733 58.4004C25.4506 58.2598 25.2698 58.0617 25.15 57.8271L24.9833 57.4771L25 41.7971L25.0233 26.1104L25.2667 25.8037C25.4282 25.6097 25.625 25.4479 25.8467 25.3271C26.1667 25.1704 26.29 25.1571 27.6467 25.1571C29.24 25.1571 29.5067 25.2171 29.92 25.6704C30.0367 25.7971 34.3767 32.3371 39.57 40.2104L55.35 64.1171L61.6833 73.7104L62.0067 73.5004C65.0551 71.4746 67.8185 69.0497 70.2233 66.2904C75.2634 60.5211 78.5329 53.4208 79.64 45.8404C79.96 43.6404 80 42.9937 80 40.0137C80 37.0337 79.96 36.3871 79.64 34.1871C77.4667 19.1671 66.7733 6.54375 52.2767 1.86708C49.5673 1.00565 46.7774 0.421541 43.95 0.12375C43.1967 0.04375 38.03 -0.0429167 37.3833 0.02375M53.76 24.2237C53.9462 24.3169 54.112 24.4463 54.2476 24.6042C54.3833 24.7622 54.4861 24.9456 54.55 25.1437C54.61 25.3438 54.6267 29.6937 54.61 39.4937L54.5867 53.5538L52.11 49.7537L49.6233 45.9538V35.7337C49.6233 29.1238 49.6533 25.4104 49.7 25.2304C49.7558 25.0224 49.8531 24.8277 49.986 24.6582C50.1189 24.4886 50.2846 24.3477 50.4733 24.2437C50.7967 24.0771 50.9133 24.0637 52.14 24.0637C53.2967 24.0637 53.5 24.0804 53.76 24.2204" fill="black"/>
</g>
</g>
<defs>
<clipPath id="clip0_19_376">
<rect width="80" height="80" fill="white"/>
</clipPath>
</defs>
</svg>
