<svg width="80" height="80" viewBox="0 0 80 80" fill="none" xmlns="http://www.w3.org/2000/svg">
<path d="M40 75.0001C39.0557 75.0005 38.1279 74.7522 37.3101 74.2801L28.75 69.2126C27.4726 68.4976 28.095 68.2451 28.5175 68.0976C29.8765 67.6785 31.1775 67.0906 32.3901 66.3476C32.4914 66.2999 32.6033 66.2792 32.715 66.2875C32.8267 66.2959 32.9344 66.3329 33.0276 66.3951L39.6051 70.3026C39.7275 70.3674 39.864 70.4012 40.0025 70.4012C40.1411 70.4013 40.2776 70.3674 40.4001 70.3026L66.05 55.4976C66.1706 55.4262 66.2703 55.3245 66.3392 55.2025C66.408 55.0806 66.4437 54.9426 66.4426 54.8026V25.1876C66.4429 25.0454 66.4065 24.9055 66.3368 24.7816C66.2672 24.6576 66.1667 24.5538 66.045 24.4801L40.3951 9.68757C40.2743 9.61874 40.1378 9.58255 39.9988 9.58255C39.8598 9.58255 39.7233 9.61874 39.6026 9.68757L13.9676 24.4851C13.8453 24.5574 13.7437 24.6601 13.6728 24.7831C13.6018 24.9062 13.5639 25.0455 13.5626 25.1876V54.7901C13.5642 54.9294 13.6022 55.0659 13.6728 55.1861C13.7434 55.3062 13.8441 55.4058 13.9651 55.4751L21 59.5351C24.8125 61.4401 27.1476 59.1951 27.1476 56.9401V27.7126C27.1476 27.5137 27.2266 27.3229 27.3672 27.1822C27.5079 27.0416 27.6986 26.9626 27.8976 26.9626H31.1475C31.3465 26.9626 31.5372 27.0416 31.6779 27.1822C31.8185 27.3229 31.8976 27.5137 31.8976 27.7126V56.9426C31.8976 62.0301 29.1276 64.9426 24.3025 64.9426C22.2212 64.9773 20.1727 64.4208 18.3951 63.3376L11.6525 59.4701C10.8347 58.9926 10.1561 58.3094 9.68415 57.4884C9.21222 56.6674 8.96345 55.7371 8.96255 54.7901V25.1876C8.95961 24.2388 9.2067 23.306 9.67894 22.4831C10.1512 21.6602 10.8319 20.9762 11.6525 20.5001L37.305 5.69007C38.1317 5.23888 39.0583 5.00244 40 5.00244C40.9418 5.00244 41.8684 5.23888 42.695 5.69007L68.345 20.5001C69.1626 20.9768 69.8413 21.659 70.3136 22.4792C70.786 23.2993 71.0355 24.2287 71.0376 25.1751V54.7901C71.0364 55.7373 70.7872 56.6678 70.3149 57.4888C69.8425 58.3099 69.1634 58.993 68.345 59.4701L42.695 74.2801C41.8757 74.7531 40.9461 75.0014 40 75.0001Z" fill="#83CD29"/>
<path d="M35.135 44.8825C35.135 44.6836 35.214 44.4929 35.3547 44.3522C35.4953 44.2116 35.6861 44.1325 35.885 44.1325H39.2025C39.3798 44.1331 39.5511 44.1965 39.6861 44.3113C39.8211 44.4262 39.9111 44.5852 39.94 44.76C40.44 48.1375 41.94 49.8401 48.7225 49.8401C54.125 49.8401 56.4275 48.6175 56.4275 45.75C56.4275 44.0975 55.775 42.8701 47.3775 42.0476C40.3575 41.3525 36.0175 39.7975 36.0175 34.1875C36.0175 29.0125 40.38 25.925 47.6925 25.925C55.91 25.925 59.9775 28.7775 60.4925 34.8975C60.5004 34.9997 60.4872 35.1024 60.4539 35.1993C60.4205 35.2962 60.3676 35.3852 60.2985 35.4609C60.2294 35.5366 60.1455 35.5973 60.052 35.6393C59.9586 35.6813 59.8575 35.7036 59.755 35.705H56.415C56.2475 35.7027 56.0855 35.6443 55.955 35.5392C55.8245 35.4341 55.733 35.2883 55.695 35.125C54.8975 31.5725 52.945 30.4375 47.695 30.4375C41.795 30.4375 41.11 32.4925 41.11 34.0325C41.11 35.8975 41.92 36.4425 49.885 37.495C57.7675 38.5375 61.5125 40.0126 61.5125 45.5526C61.5125 51.1426 56.8525 54.3425 48.725 54.3425C37.4875 54.3575 35.135 49.205 35.135 44.8825Z" fill="#83CD29"/>
</svg>
