<svg width="80" height="72" viewBox="0 0 80 72" fill="none" xmlns="http://www.w3.org/2000/svg">
<g clip-path="url(#clip0_19_175)">
<path d="M65.7759 23.0699C64.9245 22.7779 64.0659 22.5073 63.2009 22.2584C63.3462 21.6646 63.48 21.0781 63.5988 20.5018C65.5481 11.039 64.2738 3.41557 59.9209 0.905571C55.7475 -1.50068 48.9222 1.00838 42.0291 7.00745C41.3497 7.59971 40.6854 8.20908 40.0369 8.83495C39.6027 8.41878 39.1608 8.01069 38.7116 7.61088C31.4872 1.19651 24.2459 -1.50693 19.8978 1.01026C15.7281 3.42401 14.4934 10.5906 16.2484 19.5587C16.423 20.4469 16.6202 21.3305 16.8397 22.2087C15.8147 22.4999 14.8256 22.8099 13.8791 23.1399C5.40906 26.0931 0 30.7209 0 35.5212C0 40.479 5.80688 45.4518 14.6287 48.4671C15.344 48.7105 16.0651 48.9361 16.7916 49.1437C16.5557 50.0896 16.3463 51.0418 16.1634 51.9993C14.4903 60.8118 15.7969 67.809 19.9553 70.2075C24.2503 72.6843 31.4591 70.1387 38.4781 64.0028C39.0473 63.5039 39.6039 62.9909 40.1475 62.4643C40.8499 63.142 41.571 63.8 42.31 64.4374C49.1094 70.2881 55.8244 72.6506 59.9788 70.2456C64.2697 67.7615 65.6644 60.2446 63.8538 51.0993C63.7111 50.3829 63.5512 49.6699 63.3741 48.9612C63.8803 48.8112 64.3772 48.6568 64.8616 48.4962C74.0328 45.4578 80 40.5453 80 35.5212C80 30.7034 74.4163 26.0443 65.7759 23.0699ZM63.7869 45.2524C63.349 45.397 62.901 45.5371 62.4431 45.6728C61.4306 42.4674 60.0644 39.0593 58.3922 35.5378C59.9878 32.1003 61.3016 28.7356 62.2856 25.5512C63.1041 25.7881 63.8981 26.0378 64.6637 26.3012C72.0669 28.8499 76.5825 32.6178 76.5825 35.5212C76.5825 38.6137 71.7056 42.6284 63.7869 45.2524ZM60.5013 51.7631C61.3019 55.8068 61.4159 59.4631 60.8856 62.3215C60.4094 64.8899 59.4512 66.6021 58.2663 67.2881C55.7453 68.7475 50.3537 66.8506 44.5391 61.8468C43.8517 61.2541 43.1809 60.6424 42.5275 60.0124C44.7819 57.5471 47.0347 54.6812 49.2334 51.4981C53.1009 51.1549 56.7547 50.5937 60.0681 49.8278C60.2317 50.4865 60.376 51.1316 60.5013 51.7631ZM27.2738 67.0359C24.8106 67.9056 22.8487 67.9306 21.6628 67.2468C19.1394 65.7915 18.0903 60.1731 19.5212 52.6368C19.6914 51.7463 19.8861 50.8606 20.1053 49.9809C23.3822 50.7059 27.0094 51.2271 30.8859 51.5415C33.0997 54.6562 35.4175 57.519 37.7534 60.0259C37.257 60.5062 36.7488 60.9743 36.2294 61.4296C33.1253 64.1428 30.015 66.0678 27.2738 67.0359ZM15.7344 45.2334C11.8334 43.8999 8.61188 42.1671 6.40375 40.2762C4.41938 38.5771 3.41781 36.8899 3.41781 35.5212C3.41781 32.6081 7.76062 28.8924 15.0041 26.3671C15.8831 26.0609 16.8031 25.7718 17.7578 25.5006C18.7591 28.7568 20.0722 32.1615 21.6569 35.6043C20.0516 39.0981 18.7197 42.5571 17.7087 45.8518C17.0457 45.6618 16.3873 45.4556 15.7344 45.2334ZM19.6025 18.9021C18.0991 11.2187 19.0975 5.42276 21.6103 3.96807C24.2866 2.4187 30.2047 4.62776 36.4425 10.1665C36.8493 10.5285 37.2494 10.8978 37.6428 11.2743C35.3184 13.7703 33.0219 16.6118 30.8278 19.7081C27.0653 20.0568 23.4637 20.6168 20.1525 21.3671C19.9484 20.5503 19.7651 19.7282 19.6025 18.9021ZM54.1109 27.4237C53.3288 26.0727 52.5177 24.7388 51.6781 23.4228C54.2306 23.7456 56.6763 24.174 58.9728 24.6978C58.2834 26.9078 57.4241 29.2181 56.4125 31.5868C55.6731 30.1839 54.9058 28.7959 54.1109 27.4237ZM40.0384 13.7171C41.6147 15.4249 43.1934 17.3315 44.7463 19.4003C41.5963 19.2515 38.441 19.2508 35.2909 19.3984C36.8453 17.3487 38.4375 15.4446 40.0384 13.7171ZM25.8756 27.4468C25.0907 28.808 24.3377 30.1873 23.6172 31.5837C22.6222 29.2234 21.7706 26.9024 21.0753 24.6612C23.3578 24.1506 25.7919 23.7331 28.3281 23.4162C27.4792 24.7403 26.6615 26.0844 25.8756 27.4468ZM28.4009 47.869C25.7806 47.5765 23.31 47.1806 21.0281 46.6837C21.7344 44.4024 22.6047 42.0321 23.6213 39.6212C24.3446 41.0186 25.1008 42.3988 25.8891 43.7606C26.6997 45.1606 27.5391 46.5318 28.4009 47.869ZM40.1328 57.5659C38.5128 55.8184 36.8972 53.8849 35.3194 51.8056C36.8512 51.8656 38.4128 51.8962 40 51.8962C41.6306 51.8962 43.2425 51.8596 44.8291 51.789C43.2713 53.9059 41.6984 55.8421 40.1328 57.5659ZM56.4447 39.4981C57.5141 41.9356 58.4153 44.2934 59.1309 46.5356C56.8116 47.0649 54.3072 47.4912 51.6684 47.8078C52.514 46.4673 53.3328 45.1102 54.1244 43.7371C54.9292 42.3415 55.7028 40.9282 56.4447 39.4981ZM51.1641 42.0296C49.9522 44.1347 48.6722 46.1999 47.3262 48.2218C44.888 48.3946 42.4444 48.4804 40 48.479C37.5103 48.479 35.0887 48.4015 32.7569 48.2503C31.3756 46.2331 30.0713 44.1643 28.8466 42.0484C27.6275 39.9438 26.4891 37.7936 25.4334 35.6024C26.4865 33.4108 27.6217 31.2596 28.8366 29.1534L28.8363 29.1537C30.0505 27.0468 31.3445 24.9869 32.7153 22.9784C35.0944 22.7984 37.5341 22.7046 39.9997 22.7046C42.4766 22.7046 44.9197 22.7993 47.2981 22.9806C48.6551 24.9861 49.9408 27.0389 51.1528 29.1353C52.3716 31.2369 53.5218 33.3776 54.6016 35.554C53.5328 37.7526 52.3863 39.9125 51.1641 42.0296ZM58.2141 3.86588C60.8928 5.41088 61.9347 11.6412 60.2516 19.8115C60.1436 20.3332 60.0239 20.8634 59.8922 21.4021C56.5728 20.6359 52.9688 20.0662 49.1953 19.7121C46.9972 16.5818 44.7194 13.7359 42.4328 11.2721C43.0321 10.6945 43.6456 10.1318 44.2728 9.58463C50.1791 4.44495 55.6991 2.41557 58.2141 3.86588ZM40 28.3774C43.9453 28.3774 47.1437 31.5759 47.1437 35.5212C47.1437 39.4665 43.9453 42.6649 40 42.6649C36.0547 42.6649 32.8563 39.4665 32.8563 35.5212C32.8563 31.5759 36.0547 28.3774 40 28.3774Z" fill="#00D8FF"/>
</g>
<defs>
<clipPath id="clip0_19_175">
<rect width="80" height="71.25" fill="white"/>
</clipPath>
</defs>
</svg>
