<svg width="80" height="80" viewBox="0 0 80 80" fill="none" xmlns="http://www.w3.org/2000/svg">
<g clip-path="url(#clip0_19_170)">
<path d="M40.0024 16.0012C29.3356 16.0012 22.6712 21.3325 20.0024 31.9993C24.0012 26.6675 28.6693 24.6681 34.0012 26.0012C37.0456 26.76 39.2212 28.9675 41.6306 31.4137C45.5518 35.3931 50.0906 40 60.0024 40C70.6687 40 77.3337 34.6681 80.0024 23.9987C76.0024 29.3333 71.336 31.3337 66.0031 30C62.9593 29.2406 60.7862 27.0337 58.3737 24.5875C54.4549 20.6081 49.9174 16.0012 40.0024 16.0012ZM20.0024 40C9.33619 40 2.67119 45.3318 0.00244141 56.0012C4.00202 50.6666 8.66828 48.6662 14.0012 50C17.0456 50.7593 19.2212 52.9662 21.6306 55.4125C25.5518 59.3918 30.0906 63.9987 40.0024 63.9987C50.6687 63.9987 57.3337 58.6675 60.0024 48.0006C56.0024 53.3327 51.336 55.3321 46.0031 53.9987C42.9593 53.24 40.7862 51.0325 38.3737 48.5862C34.4549 44.6068 29.9174 40 20.0024 40Z" fill="#38BDF8"/>
</g>
<defs>
<clipPath id="clip0_19_170">
<rect width="80" height="80" fill="white"/>
</clipPath>
</defs>
</svg>
